solid OpenSCAD_Model
  facet normal -1 0 0
    outer loop
      vertex 0 -13.8774 7.87278
      vertex 0 -22.7139 3.75225
      vertex 0 -15.9905 12.4043
    endloop
  endfacet
  facet normal -1 0 0
    outer loop
      vertex 0 -11.4589 14.5174
      vertex 0 -3.4066 22.6858
      vertex 0 -0.288966 16
    endloop
  endfacet
  facet normal -1 0 0
    outer loop
      vertex 0 1 15
      vertex 0 -0.288966 16
      vertex 0 14 16
    endloop
  endfacet
  facet normal -1 0 0
    outer loop
      vertex 0 13 1
      vertex 0 14 16
      vertex 0 14 0
    endloop
  endfacet
  facet normal -1 0 0
    outer loop
      vertex 0 1 1
      vertex 0 14 0
      vertex 0 -1 0
    endloop
  endfacet
  facet normal -1 0 0
    outer loop
      vertex 0 -11.4589 14.5174
      vertex 0 -0.288966 16
      vertex 0 -9.34585 9.98587
    endloop
  endfacet
  facet normal -1 0 0
    outer loop
      vertex 0 -0.288966 16
      vertex 0 -1 13.8776
      vertex 0 -9.34585 9.98587
    endloop
  endfacet
  facet normal -1 0 0
    outer loop
      vertex 0 1 15
      vertex 0 14 16
      vertex 0 13 15
    endloop
  endfacet
  facet normal -1 0 0
    outer loop
      vertex 0 -15.9905 12.4043
      vertex 0 -3.4066 22.6858
      vertex 0 -11.4589 14.5174
    endloop
  endfacet
  facet normal -1 0 0
    outer loop
      vertex 0 -26.5174 11.909
      vertex 0 -3.4066 22.6858
      vertex 0 -15.9905 12.4043
    endloop
  endfacet
  facet normal -1 0 0
    outer loop
      vertex 0 -26.5174 11.909
      vertex 0 -15.9905 12.4043
      vertex 0 -22.7139 3.75225
    endloop
  endfacet
  facet normal -1 0 0
    outer loop
      vertex 0 13 1
      vertex 0 14 0
      vertex 0 1 1
    endloop
  endfacet
  facet normal -1 0 0
    outer loop
      vertex 0 -1 13.8776
      vertex 0 -0.288966 16
      vertex 0 1 15
    endloop
  endfacet
  facet normal -1 0 0
    outer loop
      vertex 0 1 1
      vertex 0 -1 13.8776
      vertex 0 1 15
    endloop
  endfacet
  facet normal -1 0 0
    outer loop
      vertex 0 13 15
      vertex 0 14 16
      vertex 0 13 1
    endloop
  endfacet
  facet normal -1 0 0
    outer loop
      vertex 0 -1 13.8776
      vertex 0 1 1
      vertex 0 -1 0
    endloop
  endfacet
  facet normal 0 -0.422618 0.906308
    outer loop
      vertex 2.75 -24.0251 13.0712
      vertex 0 -26.5174 11.909
      vertex 25.5 -26.5174 11.909
    endloop
  endfacet
  facet normal 0 -0.422618 0.906308
    outer loop
      vertex 2.75 -5.89895 21.5236
      vertex 0 -3.4066 22.6858
      vertex 2.75 -24.0251 13.0712
    endloop
  endfacet
  facet normal 0 -0.422618 0.906308
    outer loop
      vertex 22.75 -24.0251 13.0712
      vertex 2.75 -24.0251 13.0712
      vertex 25.5 -26.5174 11.909
    endloop
  endfacet
  facet normal 0 -0.422618 0.906308
    outer loop
      vertex 0 -3.4066 22.6858
      vertex 0 -26.5174 11.909
      vertex 2.75 -24.0251 13.0712
    endloop
  endfacet
  facet normal 0 -0.422618 0.906308
    outer loop
      vertex 25.5 -3.4066 22.6858
      vertex 0 -3.4066 22.6858
      vertex 2.75 -5.89895 21.5236
    endloop
  endfacet
  facet normal 0 -0.422618 0.906308
    outer loop
      vertex 25.5 -3.4066 22.6858
      vertex 22.75 -5.89895 21.5236
      vertex 25.5 -26.5174 11.909
    endloop
  endfacet
  facet normal 0 -0.422618 0.906308
    outer loop
      vertex 25.5 -3.4066 22.6858
      vertex 2.75 -5.89895 21.5236
      vertex 22.75 -5.89895 21.5236
    endloop
  endfacet
  facet normal 0 -0.422618 0.906308
    outer loop
      vertex 22.75 -5.89895 21.5236
      vertex 22.75 -24.0251 13.0712
      vertex 25.5 -26.5174 11.909
    endloop
  endfacet
  facet normal 0 -0.906308 -0.422618
    outer loop
      vertex 25.5 -26.5174 11.909
      vertex 0 -26.5174 11.909
      vertex 0 -22.7139 3.75225
    endloop
  endfacet
  facet normal 0 -0.906308 -0.422618
    outer loop
      vertex 25.5 -22.7139 3.75225
      vertex 25.5 -26.5174 11.909
      vertex 0 -22.7139 3.75225
    endloop
  endfacet
  facet normal 0 0.422618 -0.906308
    outer loop
      vertex 24.5 -21.8076 4.17487
      vertex 25.5 -22.7139 3.75225
      vertex 1 -21.8076 4.17487
    endloop
  endfacet
  facet normal 0 0.422618 -0.906308
    outer loop
      vertex 0 -22.7139 3.75225
      vertex 0 -13.8774 7.87278
      vertex 1 -21.8076 4.17487
    endloop
  endfacet
  facet normal 0 0.422618 -0.906308
    outer loop
      vertex 0 -22.7139 3.75225
      vertex 1 -21.8076 4.17487
      vertex 25.5 -22.7139 3.75225
    endloop
  endfacet
  facet normal 0 0.422618 -0.906308
    outer loop
      vertex 25.5 -22.7139 3.75225
      vertex 24.5 -21.8076 4.17487
      vertex 24.5 -0.509345 14.1064
    endloop
  endfacet
  facet normal 0 0.422618 -0.906308
    outer loop
      vertex 24.5 -0.509345 14.1064
      vertex 7 -0.509345 14.1064
      vertex 7 0.396963 14.529
    endloop
  endfacet
  facet normal 0 0.422618 -0.906308
    outer loop
      vertex 24.5 -0.509345 14.1064
      vertex 7 0.396963 14.529
      vertex 25.5 0.396963 14.529
    endloop
  endfacet
  facet normal 0 0.422618 -0.906308
    outer loop
      vertex 24.5 -0.509345 14.1064
      vertex 25.5 0.396963 14.529
      vertex 25.5 -22.7139 3.75225
    endloop
  endfacet
  facet normal 0 0.422618 -0.906308
    outer loop
      vertex 1 -21.8076 4.17487
      vertex 0 -13.8774 7.87278
      vertex 1 -13.8774 7.87278
    endloop
  endfacet
  facet normal 0 0.906308 0.422618
    outer loop
      vertex 1 -13.8774 7.87278
      vertex 0 -13.8774 7.87278
      vertex 1 -15.9905 12.4043
    endloop
  endfacet
  facet normal 0 0.906308 0.422618
    outer loop
      vertex 1 -15.9905 12.4043
      vertex 0 -13.8774 7.87278
      vertex 0 -15.9905 12.4043
    endloop
  endfacet
  facet normal 0 0.422618 -0.906308
    outer loop
      vertex 1 -11.4589 14.5174
      vertex 1 -15.9905 12.4043
      vertex 0 -11.4589 14.5174
    endloop
  endfacet
  facet normal 0 0.422618 -0.906308
    outer loop
      vertex 0 -11.4589 14.5174
      vertex 1 -15.9905 12.4043
      vertex 0 -15.9905 12.4043
    endloop
  endfacet
  facet normal 0 -0.906308 -0.422618
    outer loop
      vertex 0 -9.34585 9.98587
      vertex 1 -9.34585 9.98587
      vertex 1 -11.4589 14.5174
    endloop
  endfacet
  facet normal 0 -0.906308 -0.422618
    outer loop
      vertex 0 -11.4589 14.5174
      vertex 0 -9.34585 9.98587
      vertex 1 -11.4589 14.5174
    endloop
  endfacet
  facet normal 0 0.422618 -0.906308
    outer loop
      vertex 0 -9.34585 9.98587
      vertex 0 -1 13.8776
      vertex 1 -9.34585 9.98587
    endloop
  endfacet
  facet normal 0 0.422618 -0.906308
    outer loop
      vertex 1 -9.34585 9.98587
      vertex 0 -1 13.8776
      vertex 1 -1 13.8776
    endloop
  endfacet
  facet normal 0 -1 0
    outer loop
      vertex 0 -1 13.8776
      vertex 0 -1 0
      vertex 7 -1 0
    endloop
  endfacet
  facet normal 0 -1 0
    outer loop
      vertex 1 -1 13.8776
      vertex 0 -1 13.8776
      vertex 7 -1 0
    endloop
  endfacet
  facet normal 0 -1 0
    outer loop
      vertex 7 -1 15.1586
      vertex 1 -1 13.8776
      vertex 7 -1 0
    endloop
  endfacet
  facet normal 0 -1 0
    outer loop
      vertex 1 -1 15.1586
      vertex 1 -1 13.8776
      vertex 7 -1 15.1586
    endloop
  endfacet
  facet normal 0 0 -1
    outer loop
      vertex 0 -1 0
      vertex 0 14 0
      vertex 7 -1 0
    endloop
  endfacet
  facet normal 0 0 -1
    outer loop
      vertex 7 -1 0
      vertex 0 14 0
      vertex 7 14 0
    endloop
  endfacet
  facet normal 0 1 0
    outer loop
      vertex 0 14 0
      vertex 0 14 16
      vertex 7 14 0
    endloop
  endfacet
  facet normal 0 1 0
    outer loop
      vertex 7 14 0
      vertex 0 14 16
      vertex 7 14 16
    endloop
  endfacet
  facet normal 0 0 1
    outer loop
      vertex 0 14 16
      vertex 0 -0.288966 16
      vertex 7 -0.288966 16
    endloop
  endfacet
  facet normal 0 0 1
    outer loop
      vertex 7 14 16
      vertex 0 14 16
      vertex 7 -0.288966 16
    endloop
  endfacet
  facet normal 0 0.906308 0.422618
    outer loop
      vertex 0 -3.4066 22.6858
      vertex 25.5 -3.4066 22.6858
      vertex 0 -0.288966 16
    endloop
  endfacet
  facet normal 0 0.906308 0.422618
    outer loop
      vertex 7 -0.288966 16
      vertex 25.5 -3.4066 22.6858
      vertex 25.5 0.396963 14.529
    endloop
  endfacet
  facet normal 0 0.906308 0.422618
    outer loop
      vertex 0 -0.288966 16
      vertex 25.5 -3.4066 22.6858
      vertex 7 -0.288966 16
    endloop
  endfacet
  facet normal 0 0.906308 0.422618
    outer loop
      vertex 7 -0.288966 16
      vertex 25.5 0.396963 14.529
      vertex 7 0.396963 14.529
    endloop
  endfacet
  facet normal 0 1 0
    outer loop
      vertex 6 1 15
      vertex 6 1 1
      vertex 0 1 15
    endloop
  endfacet
  facet normal 0 1 0
    outer loop
      vertex 0 1 15
      vertex 6 1 1
      vertex 0 1 1
    endloop
  endfacet
  facet normal 0 0 -1
    outer loop
      vertex 6 13 15
      vertex 6 1 15
      vertex 0 13 15
    endloop
  endfacet
  facet normal 0 0 -1
    outer loop
      vertex 0 13 15
      vertex 6 1 15
      vertex 0 1 15
    endloop
  endfacet
  facet normal 0 -1 0
    outer loop
      vertex 6 13 1
      vertex 6 13 15
      vertex 0 13 15
    endloop
  endfacet
  facet normal 0 -1 0
    outer loop
      vertex 0 13 1
      vertex 6 13 1
      vertex 0 13 15
    endloop
  endfacet
  facet normal 0 0 1
    outer loop
      vertex 6 1 1
      vertex 6 13 1
      vertex 0 13 1
    endloop
  endfacet
  facet normal 0 0 1
    outer loop
      vertex 0 1 1
      vertex 6 1 1
      vertex 0 13 1
    endloop
  endfacet
  facet normal 1 0 0
    outer loop
      vertex 25.5 -3.4066 22.6858
      vertex 25.5 -26.5174 11.909
      vertex 25.5 -22.7139 3.75225
    endloop
  endfacet
  facet normal 1 0 0
    outer loop
      vertex 25.5 0.396963 14.529
      vertex 25.5 -3.4066 22.6858
      vertex 25.5 -22.7139 3.75225
    endloop
  endfacet
  facet normal 1 0 0
    outer loop
      vertex 2.75 -23.6025 12.1649
      vertex 2.75 -5.47633 20.6173
      vertex 2.75 -5.89895 21.5236
    endloop
  endfacet
  facet normal 1 0 0
    outer loop
      vertex 2.75 -24.0251 13.0712
      vertex 2.75 -23.6025 12.1649
      vertex 2.75 -5.89895 21.5236
    endloop
  endfacet
  facet normal 0 0.906308 0.422618
    outer loop
      vertex 22.75 -23.6025 12.1649
      vertex 2.75 -23.6025 12.1649
      vertex 22.75 -24.0251 13.0712
    endloop
  endfacet
  facet normal 0 0.906308 0.422618
    outer loop
      vertex 22.75 -24.0251 13.0712
      vertex 2.75 -23.6025 12.1649
      vertex 2.75 -24.0251 13.0712
    endloop
  endfacet
  facet normal -1 0 0
    outer loop
      vertex 22.75 -5.47633 20.6173
      vertex 22.75 -23.6025 12.1649
      vertex 22.75 -5.89895 21.5236
    endloop
  endfacet
  facet normal -1 0 0
    outer loop
      vertex 22.75 -5.89895 21.5236
      vertex 22.75 -23.6025 12.1649
      vertex 22.75 -24.0251 13.0712
    endloop
  endfacet
  facet normal 0 -0.906308 -0.422618
    outer loop
      vertex 2.75 -5.47633 20.6173
      vertex 22.75 -5.47633 20.6173
      vertex 22.75 -5.89895 21.5236
    endloop
  endfacet
  facet normal 0 -0.906308 -0.422618
    outer loop
      vertex 2.75 -5.89895 21.5236
      vertex 2.75 -5.47633 20.6173
      vertex 22.75 -5.89895 21.5236
    endloop
  endfacet
  facet normal 1 0 0
    outer loop
      vertex 7 1.5 1.5
      vertex 7 -1 0
      vertex 7 14 0
    endloop
  endfacet
  facet normal 1 0 0
    outer loop
      vertex 7 12.5 14.5
      vertex 7 12.5 1.5
      vertex 7 14 0
    endloop
  endfacet
  facet normal 1 0 0
    outer loop
      vertex 7 1.5 1.5
      vertex 7 0.396963 14.529
      vertex 7 -0.509345 14.1064
    endloop
  endfacet
  facet normal 1 0 0
    outer loop
      vertex 7 -1 15.1586
      vertex 7 -1 0
      vertex 7 -0.509345 14.1064
    endloop
  endfacet
  facet normal 1 0 0
    outer loop
      vertex 7 -0.509345 14.1064
      vertex 7 -1 0
      vertex 7 1.5 1.5
    endloop
  endfacet
  facet normal 1 0 0
    outer loop
      vertex 7 14 16
      vertex 7 0.396963 14.529
      vertex 7 1.5 14.5
    endloop
  endfacet
  facet normal 1 0 0
    outer loop
      vertex 7 14 16
      vertex 7 12.5 14.5
      vertex 7 14 0
    endloop
  endfacet
  facet normal 1 0 0
    outer loop
      vertex 7 14 16
      vertex 7 1.5 14.5
      vertex 7 12.5 14.5
    endloop
  endfacet
  facet normal 1 0 0
    outer loop
      vertex 7 12.5 1.5
      vertex 7 1.5 1.5
      vertex 7 14 0
    endloop
  endfacet
  facet normal 1 0 0
    outer loop
      vertex 7 -0.288966 16
      vertex 7 0.396963 14.529
      vertex 7 14 16
    endloop
  endfacet
  facet normal 1 0 0
    outer loop
      vertex 7 1.5 1.5
      vertex 7 1.5 14.5
      vertex 7 0.396963 14.529
    endloop
  endfacet
  facet normal 0 -0.906308 -0.422618
    outer loop
      vertex 24.5 -0.509345 14.1064
      vertex 7 -1 15.1586
      vertex 7 -0.509345 14.1064
    endloop
  endfacet
  facet normal 0 -0.906308 -0.422618
    outer loop
      vertex 24.5 -3.89029 21.3569
      vertex 7 -1 15.1586
      vertex 24.5 -0.509345 14.1064
    endloop
  endfacet
  facet normal 0 -0.906308 -0.422618
    outer loop
      vertex 1 -1 15.1586
      vertex 7 -1 15.1586
      vertex 24.5 -3.89029 21.3569
    endloop
  endfacet
  facet normal 0 -0.906308 -0.422618
    outer loop
      vertex 1 -3.89029 21.3569
      vertex 1 -1 15.1586
      vertex 24.5 -3.89029 21.3569
    endloop
  endfacet
  facet normal -1 0 0
    outer loop
      vertex 24.5 -0.509345 14.1064
      vertex 24.5 -21.8076 4.17487
      vertex 24.5 -3.89029 21.3569
    endloop
  endfacet
  facet normal -1 0 0
    outer loop
      vertex 24.5 -3.89029 21.3569
      vertex 24.5 -21.8076 4.17487
      vertex 24.5 -25.1885 11.4253
    endloop
  endfacet
  facet normal 0 0.906308 0.422618
    outer loop
      vertex 24.5 -21.8076 4.17487
      vertex 1 -21.8076 4.17487
      vertex 24.5 -25.1885 11.4253
    endloop
  endfacet
  facet normal 0 0.906308 0.422618
    outer loop
      vertex 24.5 -25.1885 11.4253
      vertex 1 -21.8076 4.17487
      vertex 1 -25.1885 11.4253
    endloop
  endfacet
  facet normal 1 0 0
    outer loop
      vertex 1 -11.4589 14.5174
      vertex 1 -3.89029 21.3569
      vertex 1 -15.9905 12.4043
    endloop
  endfacet
  facet normal 1 0 0
    outer loop
      vertex 1 -21.8076 4.17487
      vertex 1 -13.8774 7.87278
      vertex 1 -15.9905 12.4043
    endloop
  endfacet
  facet normal 1 0 0
    outer loop
      vertex 1 -25.1885 11.4253
      vertex 1 -21.8076 4.17487
      vertex 1 -15.9905 12.4043
    endloop
  endfacet
  facet normal 1 0 0
    outer loop
      vertex 1 -9.34585 9.98587
      vertex 1 -1 13.8776
      vertex 1 -11.4589 14.5174
    endloop
  endfacet
  facet normal 1 0 0
    outer loop
      vertex 1 -1 13.8776
      vertex 1 -1 15.1586
      vertex 1 -11.4589 14.5174
    endloop
  endfacet
  facet normal 1 0 0
    outer loop
      vertex 1 -1 15.1586
      vertex 1 -3.89029 21.3569
      vertex 1 -11.4589 14.5174
    endloop
  endfacet
  facet normal 1 0 0
    outer loop
      vertex 1 -3.89029 21.3569
      vertex 1 -25.1885 11.4253
      vertex 1 -15.9905 12.4043
    endloop
  endfacet
  facet normal -1 0 0
    outer loop
      vertex 6 1.5 1.5
      vertex 6 13 1
      vertex 6 1 1
    endloop
  endfacet
  facet normal -1 0 0
    outer loop
      vertex 6 12.5 1.5
      vertex 6 13 1
      vertex 6 1.5 1.5
    endloop
  endfacet
  facet normal -1 0 0
    outer loop
      vertex 6 1 15
      vertex 6 1.5 1.5
      vertex 6 1 1
    endloop
  endfacet
  facet normal -1 0 0
    outer loop
      vertex 6 12.5 14.5
      vertex 6 13 1
      vertex 6 12.5 1.5
    endloop
  endfacet
  facet normal -1 0 0
    outer loop
      vertex 6 13 15
      vertex 6 13 1
      vertex 6 12.5 14.5
    endloop
  endfacet
  facet normal -1 0 0
    outer loop
      vertex 6 13 15
      vertex 6 12.5 14.5
      vertex 6 1 15
    endloop
  endfacet
  facet normal -1 0 0
    outer loop
      vertex 6 12.5 14.5
      vertex 6 1.5 14.5
      vertex 6 1 15
    endloop
  endfacet
  facet normal -1 0 0
    outer loop
      vertex 6 1.5 1.5
      vertex 6 1 15
      vertex 6 1.5 14.5
    endloop
  endfacet
  facet normal 0 0.422618 -0.906308
    outer loop
      vertex 22.75 -5.47633 20.6173
      vertex 2.75 -5.47633 20.6173
      vertex 1 -3.89029 21.3569
    endloop
  endfacet
  facet normal 0 0.422618 -0.906308
    outer loop
      vertex 2.75 -23.6025 12.1649
      vertex 24.5 -25.1885 11.4253
      vertex 1 -25.1885 11.4253
    endloop
  endfacet
  facet normal 0 0.422618 -0.906308
    outer loop
      vertex 22.75 -23.6025 12.1649
      vertex 24.5 -25.1885 11.4253
      vertex 2.75 -23.6025 12.1649
    endloop
  endfacet
  facet normal 0 0.422618 -0.906308
    outer loop
      vertex 1 -3.89029 21.3569
      vertex 2.75 -23.6025 12.1649
      vertex 1 -25.1885 11.4253
    endloop
  endfacet
  facet normal 0 0.422618 -0.906308
    outer loop
      vertex 24.5 -3.89029 21.3569
      vertex 24.5 -25.1885 11.4253
      vertex 22.75 -23.6025 12.1649
    endloop
  endfacet
  facet normal 0 0.422618 -0.906308
    outer loop
      vertex 24.5 -3.89029 21.3569
      vertex 22.75 -23.6025 12.1649
      vertex 22.75 -5.47633 20.6173
    endloop
  endfacet
  facet normal 0 0.422618 -0.906308
    outer loop
      vertex 24.5 -3.89029 21.3569
      vertex 22.75 -5.47633 20.6173
      vertex 1 -3.89029 21.3569
    endloop
  endfacet
  facet normal 0 0.422618 -0.906308
    outer loop
      vertex 1 -3.89029 21.3569
      vertex 2.75 -5.47633 20.6173
      vertex 2.75 -23.6025 12.1649
    endloop
  endfacet
  facet normal 0 1 0
    outer loop
      vertex 7 1.5 14.5
      vertex 7 1.5 1.5
      vertex 6 1.5 14.5
    endloop
  endfacet
  facet normal 0 1 0
    outer loop
      vertex 6 1.5 14.5
      vertex 7 1.5 1.5
      vertex 6 1.5 1.5
    endloop
  endfacet
  facet normal 0 0 1
    outer loop
      vertex 7 1.5 1.5
      vertex 7 12.5 1.5
      vertex 6 12.5 1.5
    endloop
  endfacet
  facet normal 0 0 1
    outer loop
      vertex 6 1.5 1.5
      vertex 7 1.5 1.5
      vertex 6 12.5 1.5
    endloop
  endfacet
  facet normal 0 -1 0
    outer loop
      vertex 7 12.5 1.5
      vertex 7 12.5 14.5
      vertex 6 12.5 14.5
    endloop
  endfacet
  facet normal 0 -1 0
    outer loop
      vertex 6 12.5 1.5
      vertex 7 12.5 1.5
      vertex 6 12.5 14.5
    endloop
  endfacet
  facet normal 0 0 -1
    outer loop
      vertex 7 12.5 14.5
      vertex 7 1.5 14.5
      vertex 6 12.5 14.5
    endloop
  endfacet
  facet normal 0 0 -1
    outer loop
      vertex 6 12.5 14.5
      vertex 7 1.5 14.5
      vertex 6 1.5 14.5
    endloop
  endfacet
endsolid OpenSCAD_Model
