solid OpenSCAD_Model
  facet normal -1 0 0
    outer loop
      vertex -20 0 0
      vertex -20 0 1
      vertex -20 13.8 0
    endloop
  endfacet
  facet normal -1 0 0
    outer loop
      vertex -20 13.8 0
      vertex -20 0 1
      vertex -20 13.8 1
    endloop
  endfacet
  facet normal 0 -1 0
    outer loop
      vertex -20 0 1
      vertex -20 0 0
      vertex 3 0 0
    endloop
  endfacet
  facet normal 0 -1 0
    outer loop
      vertex 0 0 1
      vertex -20 0 1
      vertex 3 0 0
    endloop
  endfacet
  facet normal 0 -1 0
    outer loop
      vertex 3 0 16.5
      vertex 0 0 1
      vertex 3 0 0
    endloop
  endfacet
  facet normal 0 -1 0
    outer loop
      vertex 0 0 16.5
      vertex 0 0 1
      vertex 3 0 16.5
    endloop
  endfacet
  facet normal 0 0 -1
    outer loop
      vertex -20 0 0
      vertex -20 13.8 0
      vertex 3 0 0
    endloop
  endfacet
  facet normal 0 0 -1
    outer loop
      vertex 3 0 0
      vertex -20 13.8 0
      vertex 3 13.8 0
    endloop
  endfacet
  facet normal 0 1 0
    outer loop
      vertex -20 13.8 0
      vertex -20 13.8 1
      vertex 3 13.8 0
    endloop
  endfacet
  facet normal 0 1 0
    outer loop
      vertex 3 13.8 0
      vertex -20 13.8 1
      vertex 0 13.8 1
    endloop
  endfacet
  facet normal 0 1 0
    outer loop
      vertex 3 13.8 0
      vertex 0 13.8 1
      vertex 0 13.8 16.5
    endloop
  endfacet
  facet normal 0 1 0
    outer loop
      vertex 3 13.8 0
      vertex 0 13.8 16.5
      vertex 3 13.8 16.5
    endloop
  endfacet
  facet normal 0 0 1
    outer loop
      vertex -20 13.8 1
      vertex -20 0 1
      vertex 0 0 1
    endloop
  endfacet
  facet normal 0 0 1
    outer loop
      vertex 0 12.8 1
      vertex -20 13.8 1
      vertex 0 1 1
    endloop
  endfacet
  facet normal 0 0 1
    outer loop
      vertex 0 1 1
      vertex -20 13.8 1
      vertex 0 0 1
    endloop
  endfacet
  facet normal 0 0 1
    outer loop
      vertex 0 13.8 1
      vertex -20 13.8 1
      vertex 0 12.8 1
    endloop
  endfacet
  facet normal -1 0 0
    outer loop
      vertex 0 0 1
      vertex 0 0 16.5
      vertex 0 1 1
    endloop
  endfacet
  facet normal -1 0 0
    outer loop
      vertex 0 12.8 15.5
      vertex 0 0 16.5
      vertex 0 13.8 16.5
    endloop
  endfacet
  facet normal -1 0 0
    outer loop
      vertex 0 12.8 1
      vertex 0 13.8 16.5
      vertex 0 13.8 1
    endloop
  endfacet
  facet normal -1 0 0
    outer loop
      vertex 0 1 15.5
      vertex 0 0 16.5
      vertex 0 12.8 15.5
    endloop
  endfacet
  facet normal -1 0 0
    outer loop
      vertex 0 1 1
      vertex 0 0 16.5
      vertex 0 1 15.5
    endloop
  endfacet
  facet normal -1 0 0
    outer loop
      vertex 0 12.8 15.5
      vertex 0 13.8 16.5
      vertex 0 12.8 1
    endloop
  endfacet
  facet normal 0 0 1
    outer loop
      vertex 0 13.8 16.5
      vertex 0 0 16.5
      vertex 3 0 16.5
    endloop
  endfacet
  facet normal 0 0 1
    outer loop
      vertex 3 13.8 16.5
      vertex 0 13.8 16.5
      vertex 3 0 16.5
    endloop
  endfacet
  facet normal 1 0 0
    outer loop
      vertex 3 1 1
      vertex 3 0 0
      vertex 3 13.8 0
    endloop
  endfacet
  facet normal 1 0 0
    outer loop
      vertex 3 12.8 1
      vertex 3 1 1
      vertex 3 13.8 0
    endloop
  endfacet
  facet normal 1 0 0
    outer loop
      vertex 3 0 16.5
      vertex 3 0 0
      vertex 3 1 1
    endloop
  endfacet
  facet normal 1 0 0
    outer loop
      vertex 3 13.8 16.5
      vertex 3 0 16.5
      vertex 3 1 15.5
    endloop
  endfacet
  facet normal 1 0 0
    outer loop
      vertex 3 13.8 16.5
      vertex 3 12.8 15.5
      vertex 3 13.8 0
    endloop
  endfacet
  facet normal 1 0 0
    outer loop
      vertex 3 13.8 16.5
      vertex 3 1 15.5
      vertex 3 12.8 15.5
    endloop
  endfacet
  facet normal 1 0 0
    outer loop
      vertex 3 12.8 15.5
      vertex 3 12.8 1
      vertex 3 13.8 0
    endloop
  endfacet
  facet normal 1 0 0
    outer loop
      vertex 3 1 1
      vertex 3 1 15.5
      vertex 3 0 16.5
    endloop
  endfacet
  facet normal 0 -1 0
    outer loop
      vertex 3 12.8 1
      vertex 3 12.8 15.5
      vertex 0 12.8 15.5
    endloop
  endfacet
  facet normal 0 -1 0
    outer loop
      vertex 0 12.8 1
      vertex 3 12.8 1
      vertex 0 12.8 15.5
    endloop
  endfacet
  facet normal 0 0 1
    outer loop
      vertex 3 1 1
      vertex 3 12.8 1
      vertex 0 12.8 1
    endloop
  endfacet
  facet normal 0 0 1
    outer loop
      vertex 0 1 1
      vertex 3 1 1
      vertex 0 12.8 1
    endloop
  endfacet
  facet normal 0 1 0
    outer loop
      vertex 3 1 15.5
      vertex 3 1 1
      vertex 0 1 15.5
    endloop
  endfacet
  facet normal 0 1 0
    outer loop
      vertex 0 1 15.5
      vertex 3 1 1
      vertex 0 1 1
    endloop
  endfacet
  facet normal 0 0 -1
    outer loop
      vertex 3 12.8 15.5
      vertex 3 1 15.5
      vertex 0 12.8 15.5
    endloop
  endfacet
  facet normal 0 0 -1
    outer loop
      vertex 0 12.8 15.5
      vertex 3 1 15.5
      vertex 0 1 15.5
    endloop
  endfacet
endsolid OpenSCAD_Model
