solid OpenSCAD_Model
  facet normal -1 0 0
    outer loop
      vertex 0 3 1
      vertex 0 3 0
      vertex 0 1 1
    endloop
  endfacet
  facet normal -1 0 0
    outer loop
      vertex 0 12.8 15.5
      vertex 0 0 16.5
      vertex 0 13.8 16.5
    endloop
  endfacet
  facet normal -1 0 0
    outer loop
      vertex 0 12.8 1
      vertex 0 13.8 16.5
      vertex 0 13.8 0
    endloop
  endfacet
  facet normal -1 0 0
    outer loop
      vertex 0 12.8 15.5
      vertex 0 13.8 16.5
      vertex 0 12.8 1
    endloop
  endfacet
  facet normal -1 0 0
    outer loop
      vertex 0 10.8 0
      vertex 0 12.8 1
      vertex 0 13.8 0
    endloop
  endfacet
  facet normal -1 0 0
    outer loop
      vertex 0 1 15.5
      vertex 0 0 16.5
      vertex 0 12.8 15.5
    endloop
  endfacet
  facet normal -1 0 0
    outer loop
      vertex 0 1 1
      vertex 0 0 16.5
      vertex 0 1 15.5
    endloop
  endfacet
  facet normal -1 0 0
    outer loop
      vertex 0 0 0
      vertex 0 0 16.5
      vertex 0 1 1
    endloop
  endfacet
  facet normal -1 0 0
    outer loop
      vertex 0 0 0
      vertex 0 1 1
      vertex 0 3 0
    endloop
  endfacet
  facet normal -1 0 0
    outer loop
      vertex 0 12.8 1
      vertex 0 10.8 0
      vertex 0 10.8 1
    endloop
  endfacet
  facet normal 0 -1 0
    outer loop
      vertex 0 0 16.5
      vertex 0 0 0
      vertex 25 0 0
    endloop
  endfacet
  facet normal 0 -1 0
    outer loop
      vertex 25 0 16.5
      vertex 0 0 16.5
      vertex 25 0 0
    endloop
  endfacet
  facet normal 0 0 -1
    outer loop
      vertex 0 0 0
      vertex 0 3 0
      vertex 25 0 0
    endloop
  endfacet
  facet normal 0 0 -1
    outer loop
      vertex 25 0 0
      vertex 0 3 0
      vertex 24 3 0
    endloop
  endfacet
  facet normal 0 0 -1
    outer loop
      vertex 25 0 0
      vertex 24 3 0
      vertex 24 10.8 0
    endloop
  endfacet
  facet normal 0 0 -1
    outer loop
      vertex 24 10.8 0
      vertex 0 10.8 0
      vertex 0 13.8 0
    endloop
  endfacet
  facet normal 0 0 -1
    outer loop
      vertex 24 10.8 0
      vertex 0 13.8 0
      vertex 25 13.8 0
    endloop
  endfacet
  facet normal 0 0 -1
    outer loop
      vertex 24 10.8 0
      vertex 25 13.8 0
      vertex 25 0 0
    endloop
  endfacet
  facet normal 0 1 0
    outer loop
      vertex 24 3 1
      vertex 24 3 0
      vertex 0 3 1
    endloop
  endfacet
  facet normal 0 1 0
    outer loop
      vertex 0 3 1
      vertex 24 3 0
      vertex 0 3 0
    endloop
  endfacet
  facet normal 0 0 1
    outer loop
      vertex 24 1 1
      vertex 24 3 1
      vertex 0 3 1
    endloop
  endfacet
  facet normal 0 0 1
    outer loop
      vertex 0 1 1
      vertex 24 1 1
      vertex 0 3 1
    endloop
  endfacet
  facet normal 0 1 0
    outer loop
      vertex 24 1 15.5
      vertex 24 1 1
      vertex 0 1 15.5
    endloop
  endfacet
  facet normal 0 1 0
    outer loop
      vertex 0 1 15.5
      vertex 24 1 1
      vertex 0 1 1
    endloop
  endfacet
  facet normal 0 0 -1
    outer loop
      vertex 24 12.8 15.5
      vertex 24 1 15.5
      vertex 0 12.8 15.5
    endloop
  endfacet
  facet normal 0 0 -1
    outer loop
      vertex 0 12.8 15.5
      vertex 24 1 15.5
      vertex 0 1 15.5
    endloop
  endfacet
  facet normal 0 -1 0
    outer loop
      vertex 24 12.8 1
      vertex 24 12.8 15.5
      vertex 0 12.8 15.5
    endloop
  endfacet
  facet normal 0 -1 0
    outer loop
      vertex 0 12.8 1
      vertex 24 12.8 1
      vertex 0 12.8 15.5
    endloop
  endfacet
  facet normal 0 0 1
    outer loop
      vertex 24 10.8 1
      vertex 24 12.8 1
      vertex 0 12.8 1
    endloop
  endfacet
  facet normal 0 0 1
    outer loop
      vertex 0 10.8 1
      vertex 24 10.8 1
      vertex 0 12.8 1
    endloop
  endfacet
  facet normal 0 -1 0
    outer loop
      vertex 24 10.8 0
      vertex 24 10.8 1
      vertex 0 10.8 1
    endloop
  endfacet
  facet normal 0 -1 0
    outer loop
      vertex 0 10.8 0
      vertex 24 10.8 0
      vertex 0 10.8 1
    endloop
  endfacet
  facet normal 0 1 0
    outer loop
      vertex 0 13.8 0
      vertex 0 13.8 16.5
      vertex 25 13.8 0
    endloop
  endfacet
  facet normal 0 1 0
    outer loop
      vertex 25 13.8 0
      vertex 0 13.8 16.5
      vertex 25 13.8 16.5
    endloop
  endfacet
  facet normal 0 0 1
    outer loop
      vertex 0 13.8 16.5
      vertex 0 0 16.5
      vertex 25 0 16.5
    endloop
  endfacet
  facet normal 0 0 1
    outer loop
      vertex 25 13.8 16.5
      vertex 0 13.8 16.5
      vertex 25 0 16.5
    endloop
  endfacet
  facet normal 1 0 0
    outer loop
      vertex 25 0 16.5
      vertex 25 0 0
      vertex 25 13.8 0
    endloop
  endfacet
  facet normal 1 0 0
    outer loop
      vertex 25 13.8 16.5
      vertex 25 0 16.5
      vertex 25 13.8 0
    endloop
  endfacet
  facet normal -1 0 0
    outer loop
      vertex 24 12.8 15.5
      vertex 24 12.8 1
      vertex 24 1 15.5
    endloop
  endfacet
  facet normal -1 0 0
    outer loop
      vertex 24 1 15.5
      vertex 24 12.8 1
      vertex 24 10.8 1
    endloop
  endfacet
  facet normal -1 0 0
    outer loop
      vertex 24 1 15.5
      vertex 24 10.8 1
      vertex 24 10.8 0
    endloop
  endfacet
  facet normal -1 0 0
    outer loop
      vertex 24 3 1
      vertex 24 10.8 0
      vertex 24 3 0
    endloop
  endfacet
  facet normal -1 0 0
    outer loop
      vertex 24 1 15.5
      vertex 24 10.8 0
      vertex 24 3 1
    endloop
  endfacet
  facet normal -1 0 0
    outer loop
      vertex 24 1 1
      vertex 24 1 15.5
      vertex 24 3 1
    endloop
  endfacet
endsolid OpenSCAD_Model
